<svg version="1.1" id="layer" xmlns="http://www.w3.org/2000/svg" xmlns:xlink="http://www.w3.org/1999/xlink" x="0px" y="0px"
	 viewBox="-153 -46 652 652" style="enable-background:new -153 -46 652 652;" xml:space="preserve">
<style type="text/css">
	.st0{fill:#F47C3C;}
</style>
<path class="st0" d="M39.2,310.1c-12.9,0-20.1-7.9-20.1-7.9l5.7-7.9c0,0,6.5,6.5,14.4,6.5c4.3,0,8.6-2.2,8.6-7.2
	c0-10.1-27.3-8.7-27.3-26.7c0-9.4,7.9-16.6,19.4-16.6c11.5,0,17.2,5.8,17.2,5.8l-4.3,8.6c0,0-5.7-5-12.9-5c-5,0-8.6,2.9-8.6,7.2
	c0,10.1,27.3,7.9,27.3,26.7C58.6,302.2,51.4,310.1,39.2,310.1 M9,260.3h-23v16.6H5.4v8.7H-14v23.8h-10.8V251H9V260.3z M-40.6,309.4
	h-10.8v-24.5H-78v24.5h-10.8V251H-78v24.5h26.6V251h10.8V309.4z M-13.3,165.8c-62.5,0-113.5,50.5-113.5,114c0,62.8,51,114,113.5,114
	c63.2,0,113.5-51.2,113.5-114C100.2,216.3,49.9,165.8-13.3,165.8 M154.8,278.4h-9.3v-18h7.9c7.9,0,10.8,3.6,10.8,8.7
	C164.2,274.8,160.6,278.4,154.8,278.4 M164.9,284.9L164.9,284.9c5.7-2.9,9.3-9.4,9.3-15.9c0-7.9-3.6-13.7-9.3-16.6
	c-2.2-0.7-5-1.4-11.5-1.4h-18.7v58.4h10.8v-21.6h10.1l11.5,21.6h11.5l-12.2-21.6C165.6,285.6,164.9,284.9,164.9,284.9 M194.4,283.4
	c0.7-5.8,5-8.7,10.1-8.7c4.3,0,7.9,2.9,7.9,8.7H194.4z M204.4,266.8c-12.2,0-20.8,8.7-20.8,21.6c0,11.5,8.6,21.6,22.3,21.6
	c10.1,0,16.5-5.8,16.5-5.8l-3.6-7.2c0,0-5.8,4.3-12.2,4.3c-6.5,0-12.2-3.6-12.2-10.8h28.7v-4.3C223.1,275.5,216.7,266.8,204.4,266.8
	 M239.6,279.1c0-2.9,2.9-3.6,5.7-3.6c6.5,0,10.1,3.6,10.1,3.6l3.6-7.9c0,0-4.3-4.3-13.7-4.3c-9.3,0-15.8,4.3-15.8,12.3
	c0,13,20.1,12.3,20.1,18.7c0,2.2-2.9,3.6-5.8,3.6c-6.5,0-10.8-4.3-10.8-4.3l-5,7.2c0,0,5.8,5.8,15.8,5.8c10,0,16.5-5.1,16.5-12.3
	C260.5,284.1,239.6,284.9,239.6,279.1 M276.3,283.4c1.4-5.8,5-8.7,10.1-8.7c5,0,8.6,2.9,8.6,8.7H276.3z M287.1,266.8
	c-12.9,0-21.6,8.7-21.6,21.6c0,11.5,8.6,21.6,22.3,21.6c10.8,0,17.2-5.8,17.2-5.8l-4.3-7.2c0,0-5,4.3-12.2,4.3
	c-5.7,0-11.5-3.6-12.2-10.8H305v-4.3C305,275.5,298.6,266.8,287.1,266.8 M336.7,291.4c0,5.1-4.3,10.8-9.3,10.8
	c-4.3,0-6.5-2.9-6.5-5.1c0-6.5,8.6-7.2,13.7-7.2h2.2V291.4z M329.5,266.8c-10,0-16.5,5.1-16.5,5.1l4.3,7.2c0,0,5-3.6,10.8-3.6
	c5,0,8.6,1.4,8.6,7.2v0.7h-1.5c-7.2,0-25.2,0.7-25.2,13.7c0,8.7,7.2,13,14.4,13c9.3,0,12.9-7.2,12.9-7.2v2.9v3.6h9.4v-26
	C346.7,272.6,340.2,266.8,329.5,266.8 M367.6,277.7L367.6,277.7v-2.9v-7.2h-10.1v41.8h10.1v-16.6c0-2.2,0.7-5.1,1.4-6.5
	c1.4-6.5,6.5-9.4,10.8-9.4c1.4,0,2.9,0.7,2.9,0.7v-10.8h-2.2C374,266.8,369,271.9,367.6,277.7 M409.9,301.5c-7.9,0-12.9-5.8-12.9-13
	c0-7.2,5-13,12.9-13c6.5,0,10.8,4.3,10.8,4.3l4.3-7.2c0,0-5-5.8-15.8-5.8c-13.7,0-23,9.4-23,21.6c0,12.3,9.3,21.6,23,21.6
	c10.8,0,17.2-6.5,17.2-6.5l-4.3-7.2C422.2,296.4,417.1,301.5,409.9,301.5 M458.8,266.8c-7.2,0-12.2,3.6-14.4,7.9v-3.6V251h-10.1
	v58.4h10.1v-19.5c0-1.4,0-3.6,0.7-5.1c1.4-5,5.7-8.6,11.5-8.6c5,0,6.5,3.6,6.5,8.6v24.5h10v-26.7
	C473.2,271.2,468.1,266.8,458.8,266.8"/>
</svg>